<?xml version="1.0" encoding="UTF-8" standalone="no"?>
<!DOCTYPE svg PUBLIC "-//W3C//DTD SVG 1.1//EN" "http://www.w3.org/Graphics/SVG/1.1/DTD/svg11.dtd">
<svg width="100%" height="100%" viewBox="0 0 680 680" version="1.1" xmlns="http://www.w3.org/2000/svg" xmlns:xlink="http://www.w3.org/1999/xlink" xml:space="preserve" xmlns:serif="http://www.serif.com/" style="fill-rule:evenodd;clip-rule:evenodd;stroke-linecap:round;stroke-linejoin:bevel;stroke-miterlimit:1.5;">
    <g transform="matrix(1,0,0,1,-190,-190)">
        <g id="Pictogram" transform="matrix(3.76031,0,0,3.77707,-2628.74,-259.928)">
            <g>
                <g transform="matrix(0.311786,0,0,0.310403,674.772,44.6243)">
                    <circle cx="530" cy="530" r="290" style="fill:white;"/>
                </g>
                <g transform="matrix(0.265935,0,0,0.264756,699.073,68.8175)">
                    <path d="M529.571,464.881L269.629,395.23L269.629,664.881L530,734.766L529.571,464.881Z" style="fill:rgb(173,180,192);stroke:rgb(189,186,89);stroke-width:1.33px;"/>
                </g>
                <g transform="matrix(-0.265935,0,0,0.264756,980.915,68.8793)">
                    <path d="M529.571,464.881L269.629,395.23L269.629,664.881L530,734.766L529.571,464.881Z" style="fill:rgb(87,102,127);stroke:rgb(189,186,89);stroke-width:1.33px;"/>
                </g>
                <g transform="matrix(0.209823,0,0,0.208893,728.861,98.4949)">
                    <circle cx="530.857" cy="531.254" r="369.143" style="fill:none;stroke:rgb(189,186,89);stroke-width:72.67px;"/>
                </g>
                <g transform="matrix(0.265935,0,0,0.264756,699.073,68.8175)">
                    <path d="M530.429,465L530.429,735M269.629,394.881L269.629,664.881M791.229,395.119L791.229,665.119M529.571,465L790.371,395.119M269.629,394.881L530.429,325M530.429,735L791.229,665.119M529.571,464.881L268.771,395M791.229,394.881L530.429,325M530.429,734.881L269.629,665" style="fill:rgb(87,102,127);stroke:black;stroke-width:57.33px;"/>
                </g>
            </g>
            <g transform="matrix(0.265935,0,0,0.264756,699.073,68.8175)">
                <path d="M530.429,465L530.429,735M269.629,394.881L269.629,664.881M791.229,395.119L791.229,665.119M529.571,465L790.371,395.119M269.629,394.881L530.429,325M530.429,735L791.229,665.119M529.571,464.881L268.771,395M791.229,394.881L530.429,325M530.429,734.881L269.629,665" style="fill:rgb(87,102,127);stroke:black;stroke-width:57.33px;"/>
            </g>
        </g>
    </g>
</svg>
